<svg data-v-fde0c5aa="" xmlns="http://www.w3.org/2000/svg" viewBox="0 0 120 25" class="iconLeft"><!----><defs data-v-fde0c5aa=""><!----></defs><rect data-v-fde0c5aa="" fill="#FFFFFF" x="0" y="0" width="300px" height="300px" class="logo-background-square"></rect><defs data-v-fde0c5aa=""><!----></defs><g data-v-fde0c5aa="" id="12556b93-03fc-427d-ad5a-9710cb2cf2d1" fill="#000000" transform="matrix(1.0605799085499454,0,0,1.0605799085499454,39.14265987892464,-2.1731230752464077)"><path d="M5.88 8.61L5.88 8.61L5.00 9.39L4.82 9.34Q4.42 7.78 3.11 7.78L3.11 7.78Q2.45 7.78 2.00 8.26Q1.55 8.74 1.55 9.43L1.55 9.43Q1.55 9.82 1.73 10.17Q1.90 10.51 2.23 10.78Q2.55 11.05 2.89 11.24Q3.23 11.44 3.70 11.64L3.70 11.64Q4.83 12.13 5.37 12.74Q5.92 13.34 5.92 14.16L5.92 14.16Q5.92 14.83 5.57 15.43Q5.22 16.02 4.67 16.43Q4.12 16.83 3.45 17.07Q2.77 17.30 2.10 17.30L2.10 17.30Q1.32 17.30 0.69 16.95Q0.06 16.60-0.21 15.87L-0.21 15.87L0.59 14.95L0.83 14.96Q1.34 16.66 2.69 16.66L2.69 16.66Q3.51 16.66 4.10 16.06Q4.69 15.47 4.69 14.59L4.69 14.59Q4.69 14.04 4.18 13.51Q3.68 12.99 2.99 12.69L2.99 12.69Q2.32 12.41 1.87 12.14Q1.42 11.88 1.08 11.55Q0.75 11.22 0.59 10.82Q0.43 10.42 0.43 9.92L0.43 9.92Q0.43 9.28 0.68 8.77Q0.93 8.25 1.35 7.93Q1.76 7.61 2.29 7.43Q2.82 7.26 3.40 7.26L3.40 7.26Q3.83 7.26 4.15 7.31Q4.46 7.36 4.79 7.49Q5.11 7.63 5.38 7.91Q5.65 8.18 5.88 8.61ZM8.00 8.94L8.00 8.94L9.18 8.54L9.28 8.61Q9.14 10.23 9.13 10.93L9.13 10.93L9.21 11.00L11.00 11.00L11.07 11.05L10.96 11.42L10.88 11.49L9.21 11.49L9.13 11.57L9.13 14.22Q9.13 14.65 9.16 14.97Q9.19 15.30 9.29 15.63Q9.39 15.96 9.59 16.14Q9.80 16.32 10.12 16.32L10.12 16.32Q10.49 16.32 11.39 15.74L11.39 15.74L11.56 15.77L11.66 15.98Q10.34 17.21 9.37 17.21L9.37 17.21Q8.68 17.21 8.35 16.78L8.35 16.78Q8.13 16.50 8.08 16.09Q8.03 15.67 8.03 14.25L8.03 14.25L8.03 11.59L7.95 11.49L6.38 11.49L6.31 11.42L6.41 11.08L6.49 11.00L7.95 11.00L8.03 10.92Q8.03 9.30 8.00 8.94ZM12.82 19.64L12.82 19.64L12.79 19.48L13.41 18.70L13.58 18.70Q13.83 19.15 14.22 19.47Q14.60 19.78 15.04 19.78L15.04 19.78Q15.47 19.78 15.81 19.62Q16.15 19.46 16.34 19.24Q16.54 19.02 16.69 18.69Q16.84 18.35 16.90 18.11Q16.96 17.87 17.01 17.57L17.01 17.57Q17.10 17.06 17.13 16.19L17.13 16.19L17.04 16.13Q16.52 16.45 16.19 16.64Q15.85 16.83 15.34 17.01Q14.83 17.20 14.41 17.20L14.41 17.20Q14.13 17.20 13.90 17.12Q13.68 17.04 13.53 16.91Q13.38 16.78 13.27 16.58Q13.16 16.39 13.10 16.19Q13.04 16.00 13.01 15.75Q12.97 15.50 12.96 15.32Q12.95 15.13 12.95 14.89L12.95 14.89Q12.95 14.58 12.98 13.96Q13.01 13.33 13.01 12.97L13.01 12.97Q13.01 12.55 12.99 12.29Q12.97 12.02 12.90 11.79Q12.84 11.56 12.71 11.45Q12.58 11.35 12.37 11.35L12.37 11.35Q12.12 11.35 11.38 11.74L11.38 11.74L11.22 11.48Q12.58 10.54 13.17 10.54L13.17 10.54Q13.60 10.54 13.82 10.82Q14.05 11.10 14.05 11.52L14.05 11.52Q14.05 11.91 14.02 12.71Q13.99 13.51 13.99 13.92L13.99 13.92Q14.02 14.85 14.11 15.28Q14.21 15.71 14.38 15.94L14.38 15.94Q14.67 16.30 15.26 16.30L15.26 16.30Q15.57 16.30 15.96 16.17Q16.34 16.04 16.55 15.92Q16.77 15.80 17.14 15.58L17.14 15.58Q17.17 14.59 17.17 14.08L17.17 14.08Q17.17 12.74 17.06 11.09L17.06 11.09L18.16 10.57L18.33 10.62Q18.26 11.76 18.25 13.35Q18.23 14.94 18.20 16.07Q18.17 17.20 18.04 17.77L18.04 17.77Q17.68 19.07 16.74 19.71Q15.80 20.35 14.59 20.35L14.59 20.35Q14.11 20.35 13.61 20.15Q13.10 19.94 12.82 19.64ZM23.19 15.52L23.19 15.52L23.35 15.52L23.51 15.69Q22.51 17.25 21.38 17.25L21.38 17.25Q20.99 17.25 20.76 17.10Q20.52 16.95 20.37 16.50Q20.23 16.05 20.23 15.27L20.23 15.27L20.33 9.98Q20.33 8.95 20.25 8.58L20.25 8.58Q20.23 8.49 20.18 8.42Q20.13 8.35 20.05 8.31Q19.96 8.27 19.88 8.24Q19.80 8.21 19.67 8.20Q19.54 8.18 19.47 8.18Q19.39 8.17 19.24 8.16Q19.09 8.16 19.04 8.16L19.04 8.16L19.04 7.83L19.13 7.77L21.43 7.49L21.52 7.58Q21.51 8.13 21.41 10.23Q21.32 12.33 21.32 13.47L21.32 13.47Q21.32 13.65 21.32 13.92Q21.31 14.19 21.31 14.37Q21.31 14.54 21.31 14.77Q21.31 15.00 21.32 15.16Q21.34 15.31 21.37 15.48Q21.39 15.65 21.44 15.76Q21.49 15.87 21.57 15.97Q21.64 16.07 21.75 16.12Q21.85 16.17 21.99 16.18L21.99 16.18Q22.21 16.18 22.45 16.06Q22.68 15.95 22.82 15.84Q22.96 15.74 23.19 15.52ZM25.12 11.55L25.12 11.55Q24.74 11.95 24.61 12.41Q24.47 12.87 24.47 13.45L24.47 13.45Q24.47 13.54 24.50 13.70L24.50 13.70L24.55 13.76L27.38 12.64Q27.56 12.58 27.56 12.27L27.56 12.27Q27.56 11.79 27.20 11.38Q26.84 10.96 26.29 10.96L26.29 10.96Q25.59 10.96 25.12 11.55ZM28.47 12.63L28.47 12.63L24.53 14.33Q24.56 14.69 24.67 15.02Q24.79 15.35 24.99 15.65Q25.20 15.95 25.54 16.13Q25.89 16.30 26.33 16.30L26.33 16.30Q27.27 16.30 28.49 15.35L28.49 15.35L28.64 15.38L28.83 15.63Q27.09 17.26 25.63 17.26L25.63 17.26Q25.09 17.26 24.68 17.06Q24.26 16.86 24.01 16.55Q23.75 16.23 23.59 15.78Q23.43 15.33 23.37 14.88Q23.31 14.44 23.31 13.92L23.31 13.92Q23.31 12.48 24.02 11.66L24.02 11.66Q24.53 11.05 25.26 10.73Q25.98 10.40 26.78 10.40L26.78 10.40Q27.67 10.40 28.22 10.95Q28.77 11.50 28.77 12.33L28.77 12.33Q28.77 12.41 28.72 12.47Q28.67 12.53 28.63 12.55Q28.58 12.58 28.47 12.63ZM34.78 8.61L34.78 8.61L33.90 9.39L33.72 9.34Q33.32 7.78 32.01 7.78L32.01 7.78Q31.35 7.78 30.90 8.26Q30.45 8.74 30.45 9.43L30.45 9.43Q30.45 9.82 30.63 10.17Q30.80 10.51 31.13 10.78Q31.45 11.05 31.79 11.24Q32.14 11.44 32.60 11.64L32.60 11.64Q33.73 12.13 34.28 12.74Q34.82 13.34 34.82 14.16L34.82 14.16Q34.82 14.83 34.47 15.43Q34.13 16.02 33.57 16.43Q33.02 16.83 32.35 17.07Q31.67 17.30 31.00 17.30L31.00 17.30Q30.22 17.30 29.59 16.95Q28.96 16.60 28.69 15.87L28.69 15.87L29.49 14.95L29.73 14.96Q30.24 16.66 31.59 16.66L31.59 16.66Q32.42 16.66 33.00 16.06Q33.59 15.47 33.59 14.59L33.59 14.59Q33.59 14.04 33.09 13.51Q32.58 12.99 31.90 12.69L31.90 12.69Q31.22 12.41 30.77 12.14Q30.32 11.88 29.99 11.55Q29.65 11.22 29.49 10.82Q29.33 10.42 29.33 9.92L29.33 9.92Q29.33 9.28 29.58 8.77Q29.83 8.25 30.25 7.93Q30.67 7.61 31.20 7.43Q31.73 7.26 32.31 7.26L32.31 7.26Q32.73 7.26 33.05 7.31Q33.37 7.36 33.69 7.49Q34.02 7.63 34.29 7.91Q34.56 8.18 34.78 8.61ZM37.65 19.97L37.65 19.97L36.52 20.41L36.37 20.25Q36.46 19.28 36.46 15.77L36.46 15.77L36.46 12.68Q36.46 12.13 36.33 11.72Q36.20 11.32 35.91 11.32L35.91 11.32Q35.58 11.32 34.89 11.73L34.89 11.73L34.69 11.46Q35.88 10.51 36.60 10.51L36.60 10.51Q37.04 10.51 37.25 10.78Q37.46 11.06 37.51 11.56L37.51 11.56L37.62 11.61Q38.92 10.58 40.20 10.58L40.20 10.58Q40.61 10.58 40.94 10.73Q41.28 10.87 41.49 11.10Q41.71 11.33 41.85 11.65Q41.99 11.96 42.05 12.27Q42.12 12.59 42.12 12.92L42.12 12.92Q42.12 13.69 41.85 14.46Q41.58 15.24 41.11 15.86Q40.65 16.47 39.95 16.86Q39.26 17.25 38.47 17.25L38.47 17.25Q38.10 17.25 37.65 17.13L37.65 17.13L37.51 17.25Q37.55 19.12 37.65 19.97ZM37.54 16.08L37.54 16.17Q38.10 16.69 38.77 16.69L38.77 16.69Q39.26 16.69 39.64 16.51Q40.02 16.32 40.26 16.04Q40.50 15.75 40.66 15.36Q40.82 14.96 40.88 14.57Q40.94 14.17 40.94 13.75L40.94 13.75Q40.94 12.80 40.54 12.12Q40.15 11.45 39.50 11.45L39.50 11.45Q38.99 11.45 38.53 11.65Q38.07 11.85 37.55 12.26L37.55 12.26Q37.55 12.29 37.53 12.88Q37.51 13.47 37.51 13.56L37.51 13.56Q37.51 13.79 37.51 14.06Q37.51 14.33 37.51 14.58Q37.52 14.83 37.52 15.07Q37.52 15.31 37.53 15.50Q37.53 15.70 37.53 15.85Q37.54 16.00 37.54 16.08L37.54 16.08ZM50.60 15.59L50.60 15.59L50.78 15.73L50.78 15.89Q50.20 16.50 49.68 16.86Q49.15 17.23 48.58 17.23L48.58 17.23Q48.13 17.23 47.89 16.82Q47.65 16.41 47.65 15.85L47.65 15.85Q47.65 15.44 47.68 14.51Q47.71 13.58 47.71 13.36L47.71 13.36Q47.71 13.02 47.69 12.75Q47.67 12.49 47.59 12.23Q47.52 11.97 47.39 11.81Q47.26 11.64 47.03 11.54Q46.81 11.44 46.51 11.44L46.51 11.44Q46.00 11.44 45.53 11.66Q45.06 11.89 44.52 12.27L44.52 12.27Q44.52 13.04 44.51 14.58Q44.50 16.11 44.50 16.86L44.50 16.86L43.48 17.17L43.40 17.04Q43.59 13.50 43.60 11.49L43.60 11.49Q43.60 11.26 43.60 10.82Q43.61 10.38 43.61 10.18Q43.61 9.97 43.60 9.65Q43.59 9.32 43.56 9.15Q43.52 8.97 43.47 8.78Q43.41 8.59 43.32 8.46L43.32 8.46Q43.30 8.44 43.26 8.41Q43.23 8.38 43.18 8.36Q43.12 8.33 43.07 8.31Q43.02 8.29 42.94 8.27Q42.86 8.24 42.81 8.23Q42.75 8.22 42.66 8.19Q42.56 8.17 42.51 8.16Q42.46 8.15 42.37 8.13Q42.27 8.11 42.24 8.10L42.24 8.10L42.24 7.85L42.31 7.79L44.52 7.55L44.60 7.66Q44.55 8.85 44.55 11.52L44.55 11.52L44.66 11.63Q45.19 11.31 45.55 11.12Q45.91 10.92 46.45 10.75Q47.00 10.57 47.48 10.57L47.48 10.57Q47.65 10.57 47.93 10.67Q48.20 10.78 48.38 10.96L48.38 10.96Q48.47 11.04 48.54 11.15Q48.60 11.27 48.63 11.43Q48.67 11.60 48.69 11.74Q48.71 11.89 48.72 12.13Q48.73 12.37 48.73 12.53Q48.73 12.69 48.72 12.99Q48.72 13.29 48.72 13.45L48.72 13.45L48.72 14.49Q48.72 14.55 48.71 14.76Q48.71 14.96 48.71 15.08Q48.71 15.20 48.73 15.40Q48.74 15.61 48.78 15.73Q48.82 15.85 48.89 15.97Q48.95 16.10 49.07 16.16Q49.18 16.22 49.33 16.22L49.33 16.22Q49.94 16.22 50.60 15.59ZM52.41 11.55L52.41 11.55Q52.04 11.95 51.90 12.41Q51.77 12.87 51.77 13.45L51.77 13.45Q51.77 13.54 51.80 13.70L51.80 13.70L51.85 13.76L54.68 12.64Q54.86 12.58 54.86 12.27L54.86 12.27Q54.86 11.79 54.50 11.38Q54.14 10.96 53.59 10.96L53.59 10.96Q52.89 10.96 52.41 11.55ZM55.77 12.63L55.77 12.63L51.82 14.33Q51.86 14.69 51.97 15.02Q52.08 15.35 52.29 15.65Q52.49 15.95 52.84 16.13Q53.18 16.30 53.63 16.30L53.63 16.30Q54.56 16.30 55.78 15.35L55.78 15.35L55.94 15.38L56.12 15.63Q54.39 17.26 52.93 17.26L52.93 17.26Q52.39 17.26 51.97 17.06Q51.56 16.86 51.30 16.55Q51.05 16.23 50.89 15.78Q50.73 15.33 50.67 14.88Q50.61 14.44 50.61 13.92L50.61 13.92Q50.61 12.48 51.32 11.66L51.32 11.66Q51.83 11.05 52.55 10.73Q53.28 10.40 54.08 10.40L54.08 10.40Q54.97 10.40 55.51 10.95Q56.06 11.50 56.06 12.33L56.06 12.33Q56.06 12.41 56.01 12.47Q55.97 12.53 55.92 12.55Q55.88 12.58 55.77 12.63ZM61.26 11.66L60.51 12.35L60.34 12.27Q60.28 11.93 60.10 11.70Q59.92 11.46 59.60 11.46L59.60 11.46Q59.21 11.46 58.94 11.72Q58.67 11.98 58.52 12.33L58.52 12.33Q58.43 12.54 58.41 12.91Q58.39 13.28 58.41 13.94Q58.43 14.59 58.43 14.71L58.43 14.71Q58.43 15.77 58.47 16.84L58.47 16.84L57.48 17.13L57.28 17.01Q57.44 15.05 57.44 13.69L57.44 13.69Q57.44 13.62 57.44 13.50L57.44 13.50Q57.44 13.23 57.44 13.10Q57.44 12.97 57.44 12.73Q57.43 12.48 57.41 12.35Q57.39 12.21 57.37 12.02Q57.35 11.83 57.30 11.73Q57.25 11.63 57.19 11.52Q57.13 11.41 57.04 11.36Q56.95 11.32 56.84 11.32L56.84 11.32Q56.52 11.32 55.75 11.76L55.75 11.76L55.58 11.52Q56.01 11.18 56.22 11.03Q56.43 10.87 56.82 10.67Q57.20 10.47 57.47 10.47L57.47 10.47Q58.34 10.47 58.48 11.48L58.48 11.48L58.62 11.53Q59.63 10.55 60.16 10.55L60.16 10.55Q61.16 10.55 61.26 11.66L61.26 11.66ZM63.10 11.55L63.10 11.55Q62.72 11.95 62.59 12.41Q62.45 12.87 62.45 13.45L62.45 13.45Q62.45 13.54 62.48 13.70L62.48 13.70L62.54 13.76L65.37 12.64Q65.54 12.58 65.54 12.27L65.54 12.27Q65.54 11.79 65.18 11.38Q64.83 10.96 64.27 10.96L64.27 10.96Q63.57 10.96 63.10 11.55ZM66.45 12.63L66.45 12.63L62.51 14.33Q62.54 14.69 62.65 15.02Q62.77 15.35 62.97 15.65Q63.18 15.95 63.52 16.13Q63.87 16.30 64.31 16.30L64.31 16.30Q65.25 16.30 66.47 15.35L66.47 15.35L66.62 15.38L66.81 15.63Q65.07 17.26 63.62 17.26L63.62 17.26Q63.08 17.26 62.66 17.06Q62.24 16.86 61.99 16.55Q61.74 16.23 61.57 15.78Q61.41 15.33 61.35 14.88Q61.29 14.44 61.29 13.92L61.29 13.92Q61.29 12.48 62.00 11.66L62.00 11.66Q62.51 11.05 63.24 10.73Q63.96 10.40 64.76 10.40L64.76 10.40Q65.65 10.40 66.20 10.95Q66.75 11.50 66.75 12.33L66.75 12.33Q66.75 12.41 66.70 12.47Q66.65 12.53 66.61 12.55Q66.56 12.58 66.45 12.63Z"></path></g><defs data-v-fde0c5aa=""><!----></defs><g data-v-fde0c5aa="" id="cc4140fe-42d3-4ec3-b322-9169eb6167cd" stroke="none" fill="#CE39B7" transform="matrix(0.6537480652899682,0,0,0.6537480652899682,10,2.0400309553605087)"><path d="M4.029 14.362L14.362 4.028l.707.707L4.736 15.07zM17.135 27.47L27.47 17.135l.707.707-10.333 10.333zM4.029 17.841l.707-.707 10.333 10.334-.707.707zM17.135 4.735l.708-.707L28.176 14.36l-.707.707z"></path><g><path d="M16 1.414l1.683 1.683L16 4.779l-1.683-1.683L16 1.414M16 0l-3.097 3.097L16 6.194l3.097-3.097L16 0zM16 27.221l1.683 1.683L16 30.586l-1.683-1.683L16 27.221m0-1.415l-3.097 3.097L16 32l3.097-3.097L16 25.806zM3.097 14.317L4.779 16l-1.683 1.683L1.414 16l1.683-1.683m0-1.414L0 16l3.097 3.097L6.194 16l-3.097-3.097zM28.903 14.317L30.586 16l-1.683 1.683L27.221 16l1.682-1.683m0-1.414L25.806 16l3.097 3.097L32 16l-3.097-3.097z"></path></g></g><!----></svg>